<svg width="170" height="170" viewBox="0 0 170 170" fill="none" xmlns="http://www.w3.org/2000/svg">
<circle cx="85" cy="85" r="85" fill="#F50B49"/>
<path d="M9.5 111C18.1207 113.184 37.5388 118.091 52.194 112.849C66.8492 107.606 70.513 94.1969 69.9742 87.1395C69.9742 81.0903 65.0173 70 51.6552 70C38.2931 70 33.875 79.578 33.3362 84.619C27.9483 127.468 82.1868 137.55 112 124.947L115.5 123" stroke="white" stroke-width="6" stroke-linecap="round" stroke-dasharray="8 12"/>
<path d="M116 43C108.268 43.0085 100.854 46.0841 95.3859 51.5521C89.9179 57.0201 86.8423 64.4338 86.8338 72.1667C86.8338 87.5725 111.334 108.721 114.116 111.084L116 112.676L117.885 111.084C120.667 108.721 145.167 87.5725 145.167 72.1667C145.159 64.4338 142.083 57.0201 136.615 51.5521C131.147 46.0841 123.733 43.0085 116 43V43ZM116 86.75C113.116 86.75 110.297 85.8947 107.898 84.2923C105.5 82.6898 103.631 80.4122 102.527 77.7475C101.423 75.0827 101.135 72.1505 101.697 69.3216C102.26 66.4927 103.649 63.8942 105.688 61.8547C107.728 59.8152 110.326 58.4262 113.155 57.8635C115.984 57.3008 118.916 57.5896 121.581 58.6934C124.246 59.7972 126.524 61.6664 128.126 64.0646C129.728 66.4628 130.584 69.2824 130.584 72.1667C130.579 76.033 129.041 79.7396 126.307 82.4735C123.573 85.2074 119.867 86.7454 116 86.75Z" fill="white"/>
</svg>
