<svg width="170" height="170" viewBox="0 0 170 170" fill="none" xmlns="http://www.w3.org/2000/svg">
<circle cx="85" cy="85" r="85" fill="#F50B49"/>
<path d="M79 101C79 102.657 77.6477 104.025 76.0138 103.751C74.6782 103.526 73.3689 103.151 72.1117 102.63C69.9278 101.725 67.9435 100.399 66.2721 98.7279C64.6006 97.0565 63.2748 95.0722 62.3702 92.8883C61.4656 90.7044 61 88.3638 61 86C61 83.6362 61.4656 81.2956 62.3702 79.1117C63.2748 76.9278 64.6006 74.9435 66.2721 73.2721C67.9435 71.6006 69.9278 70.2748 72.1117 69.3702C73.369 68.8494 74.6782 68.4741 76.0139 68.2494C77.6477 67.9746 79 69.3431 79 71L79 86V101Z" fill="white" stroke="white" stroke-width="2"/>
<path d="M76.6666 72.5C73.3514 72.5 70.172 73.817 67.8278 76.1612C65.4836 78.5054 64.1666 81.6848 64.1666 85C64.1666 88.3152 65.4836 91.4946 67.8278 93.8388C70.172 96.183 73.3514 97.5 76.6666 97.5M43.3333 85H47.5M93.3333 122.5V47.5M76.6666 51.6667V47.5M76.6666 122.5V118.333M50.1662 111.501L53.0829 108.584M53.0829 61.4172L50.1662 58.5006M93.3333 85H126.667M105.833 51.6667L93.3333 64.1667M93.3333 105.833L105.833 118.333M122.5 97.5L110 85L122.5 72.5" stroke="white" stroke-width="6" stroke-linecap="round" stroke-linejoin="round"/>
</svg>
