<svg width="170" height="170" viewBox="0 0 170 170" fill="none" xmlns="http://www.w3.org/2000/svg">
<circle cx="85" cy="85" r="85" fill="#F50B49"/>
<path d="M58.3334 95.0001C58.3334 95.0001 61.6667 91.6667 71.6667 91.6667C81.6667 91.6667 88.3334 98.3334 98.3334 98.3334C108.333 98.3334 111.667 95.0001 111.667 95.0001V55.0001C111.667 55.0001 108.333 58.3334 98.3334 58.3334C88.3334 58.3334 81.6667 51.6667 71.6667 51.6667C61.6667 51.6667 58.3334 55.0001 58.3334 55.0001V95.0001Z" fill="white"/>
<path d="M58.3334 95.0001C58.3334 95.0001 61.6667 91.6667 71.6667 91.6667C81.6667 91.6667 88.3334 98.3334 98.3334 98.3334C108.333 98.3334 111.667 95.0001 111.667 95.0001V55.0001C111.667 55.0001 108.333 58.3334 98.3334 58.3334C88.3334 58.3334 81.6667 51.6667 71.6667 51.6667C61.6667 51.6667 58.3334 55.0001 58.3334 55.0001V95.0001ZM58.3334 95.0001V118.333" stroke="white" stroke-width="6" stroke-linecap="round" stroke-linejoin="round"/>
</svg>
