<svg width="170" height="170" viewBox="0 0 170 170" fill="none" xmlns="http://www.w3.org/2000/svg">
<circle cx="85" cy="85" r="85" fill="#F50B49"/>
<path d="M67 114.5H52V124.5L34.5 107L52 89.5V99.5H67V114.5Z" fill="white" stroke="white" stroke-width="2" stroke-linecap="round" stroke-linejoin="round"/>
<circle cx="97" cy="107" r="28" fill="white" stroke="#F50B49" stroke-width="6"/>
<path d="M96.0553 116.591H98.4439V123H96.0553V116.591ZM96.3761 116.025V96.6567L98.0873 96.2672V116.095L96.3761 116.025ZM96.0553 90H98.4439V95.8423L96.0553 96.1964V90ZM103.934 100.304C103.768 100.138 103.459 99.9142 103.007 99.6309C102.579 99.3476 102.045 99.0762 101.403 98.8165C100.785 98.5569 100.108 98.3326 99.3708 98.1438C98.634 97.9313 97.8853 97.8251 97.1248 97.8251C95.7938 97.8251 94.7837 98.073 94.0945 98.5687C93.429 99.0644 93.0963 99.7607 93.0963 100.658C93.0963 101.342 93.3102 101.885 93.738 102.286C94.1658 102.688 94.8075 103.03 95.6631 103.313C96.5187 103.597 97.5882 103.903 98.8717 104.234C100.535 104.635 101.973 105.131 103.185 105.721C104.421 106.288 105.36 107.043 106.002 107.987C106.667 108.908 107 110.135 107 111.67C107 113.015 106.75 114.172 106.251 115.139C105.752 116.084 105.063 116.851 104.184 117.441C103.304 118.031 102.294 118.468 101.153 118.751C100.036 119.011 98.8598 119.141 97.6239 119.141C96.3642 119.141 95.0927 119.011 93.8093 118.751C92.5496 118.491 91.3375 118.126 90.1729 117.653C89.0321 117.158 87.9745 116.568 87 115.883L89.1747 111.67C89.3886 111.882 89.7689 112.165 90.3155 112.519C90.8622 112.85 91.5157 113.192 92.2763 113.546C93.0606 113.877 93.9162 114.16 94.8431 114.396C95.7938 114.632 96.7445 114.75 97.6952 114.75C99.0261 114.75 100.036 114.526 100.725 114.077C101.415 113.629 101.759 112.991 101.759 112.165C101.759 111.41 101.486 110.82 100.939 110.395C100.393 109.97 99.6203 109.604 98.6221 109.297C97.6477 108.967 96.5068 108.613 95.1996 108.235C93.5835 107.786 92.2406 107.291 91.1711 106.748C90.1016 106.181 89.3054 105.473 88.7825 104.623C88.2597 103.774 87.9982 102.711 87.9982 101.437C87.9982 99.7135 88.4141 98.2736 89.246 97.117C90.0778 95.9367 91.1949 95.0515 92.5971 94.4614C93.9994 93.8476 95.5561 93.5408 97.2674 93.5408C98.4557 93.5408 99.5728 93.6706 100.619 93.9303C101.688 94.1899 102.686 94.5322 103.613 94.9571C104.54 95.382 105.372 95.8423 106.109 96.338L103.934 100.304Z" fill="#F50B49"/>
<path d="M102 55.5H117V45.5L134.5 63L117 80.5V70.5H102V55.5Z" fill="white" stroke="white" stroke-width="2" stroke-linecap="round" stroke-linejoin="round"/>
<circle cx="72" cy="63" r="28" fill="white" stroke="#F50B49" stroke-width="6"/>
<path d="M71.0553 72.5912H73.4439V79H71.0553V72.5912ZM71.3761 72.0247V52.6567L73.0873 52.2672V72.0955L71.3761 72.0247ZM71.0553 46H73.4439V51.8423L71.0553 52.1964V46ZM78.934 56.3036C78.7677 56.1384 78.4587 55.9142 78.0071 55.6309C77.5793 55.3476 77.0446 55.0762 76.4029 54.8165C75.7849 54.5569 75.1075 54.3326 74.3708 54.1438C73.634 53.9313 72.8853 53.8251 72.1248 53.8251C70.7938 53.8251 69.7837 54.073 69.0945 54.5687C68.429 55.0644 68.0963 55.7607 68.0963 56.6577C68.0963 57.3423 68.3102 57.8852 68.738 58.2865C69.1658 58.6878 69.8075 59.03 70.6631 59.3133C71.5187 59.5966 72.5882 59.9034 73.8717 60.2339C75.5354 60.6352 76.9733 61.1309 78.1854 61.721C79.4213 62.2876 80.3601 63.0429 81.0018 63.9871C81.6673 64.9077 82 66.1352 82 67.6695C82 69.015 81.7504 70.1717 81.2513 71.1395C80.7522 72.0837 80.063 72.8509 79.1836 73.441C78.3042 74.0311 77.2941 74.4678 76.1533 74.7511C75.0362 75.0107 73.8598 75.1406 72.6239 75.1406C71.3642 75.1406 70.0927 75.0107 68.8093 74.7511C67.5496 74.4914 66.3375 74.1255 65.1729 73.6534C64.0321 73.1577 62.9745 72.5676 62 71.883L64.1747 67.6695C64.3886 67.882 64.7689 68.1652 65.3155 68.5193C65.8622 68.8498 66.5157 69.1921 67.2763 69.5461C68.0606 69.8766 68.9162 70.1599 69.8431 70.3959C70.7938 70.632 71.7445 70.75 72.6952 70.75C74.0261 70.75 75.0362 70.5258 75.7255 70.0773C76.4147 69.6288 76.7594 68.9914 76.7594 68.1652C76.7594 67.4099 76.486 66.8197 75.9394 66.3949C75.3928 65.97 74.6203 65.6041 73.6221 65.2972C72.6477 64.9667 71.5068 64.6127 70.1996 64.235C68.5835 63.7865 67.2406 63.2908 66.1711 62.7479C65.1016 62.1813 64.3054 61.4732 63.7825 60.6234C63.2597 59.7736 62.9982 58.7114 62.9982 57.4367C62.9982 55.7135 63.4141 54.2736 64.246 53.117C65.0778 51.9367 66.1949 51.0515 67.5971 50.4614C68.9994 49.8476 70.5561 49.5408 72.2674 49.5408C73.4557 49.5408 74.5728 49.6706 75.6185 49.9303C76.6881 50.1899 77.6863 50.5322 78.6132 50.9571C79.5401 51.382 80.372 51.8423 81.1087 52.338L78.934 56.3036Z" fill="#F50B49"/>
</svg>
