<svg width="170" height="170" viewBox="0 0 170 170" fill="none" xmlns="http://www.w3.org/2000/svg">
<circle cx="85" cy="85" r="85" fill="#F50B49"/>
<path d="M101.057 32.1858L101.568 32.1235C106.835 31.6194 111.628 35.3305 112.406 40.6237L122.234 107.418C123.038 112.882 119.26 117.964 113.796 118.767L65.3621 125.893C59.8981 126.697 54.8169 122.919 54.013 117.455L44.1858 50.6607C43.3819 45.1967 47.1597 40.1156 52.6237 39.3117L101.057 32.1858Z" fill="white" stroke="#F50B49" stroke-width="4"/>
<path d="M116.802 49.4863C122.877 49.4864 127.802 54.4112 127.802 60.4863V128C127.802 134.075 122.877 139 116.802 139H67.8469C61.7718 139 56.8469 134.075 56.8469 128V60.4863C56.8469 54.4112 61.7717 49.4863 67.8469 49.4863H116.802Z" fill="white" stroke="#F50B49" stroke-width="6"/>
<path d="M78.4055 115.586H106.243" stroke="#F50B49" stroke-width="6" stroke-linecap="round"/>
<path d="M73.7658 123.937L110.883 123.937" stroke="#F50B49" stroke-width="6" stroke-linecap="round"/>
<g clip-path="url(#clip0_1023_8018)">
<path d="M92.3244 64.5496C88.1032 64.5496 83.9769 65.8013 80.4672 68.1464C76.9575 70.4915 74.2219 73.8247 72.6066 77.7246C70.9912 81.6244 70.5686 85.9156 71.3921 90.0556C72.2156 94.1956 74.2483 97.9985 77.233 100.983C80.2178 103.968 84.0207 106.001 88.1607 106.824C92.3007 107.648 96.5919 107.225 100.492 105.61C104.392 103.994 107.725 101.259 110.07 97.7491C112.415 94.2394 113.667 90.113 113.667 85.8919C113.661 80.2335 111.41 74.8085 107.409 70.8074C103.408 66.8062 97.9828 64.5557 92.3244 64.5496V64.5496ZM107.721 76.9993H101.984C100.698 74.0176 99.0031 71.2294 96.9485 68.7149C101.491 69.9488 105.362 72.9261 107.721 76.9993ZM100.328 85.8919C100.315 87.7025 100.031 89.5009 99.4865 91.2275H85.1622C84.6174 89.5009 84.3338 87.7025 84.321 85.8919C84.3338 84.0814 84.6174 82.283 85.1622 80.5563H99.4865C100.031 82.283 100.315 84.0814 100.328 85.8919ZM86.5868 94.7846H98.0619C96.5513 97.766 94.6189 100.514 92.3244 102.944C90.0298 100.514 88.0975 97.766 86.5868 94.7846ZM86.5868 76.9993C88.0975 74.0178 90.0298 71.2696 92.3244 68.8394C94.6189 71.2696 96.5513 74.0178 98.0619 76.9993H86.5868ZM87.7002 68.7149C85.6461 71.2297 83.9515 74.0178 82.6652 76.9993H76.9276C79.2864 72.9261 83.1579 69.9488 87.7002 68.7149ZM75.3572 80.5563H81.4611C80.5316 84.0527 80.5316 87.7312 81.4611 91.2275H75.3572C74.2664 87.7541 74.2664 84.0298 75.3572 80.5563ZM76.9276 94.7846H82.6652C83.951 97.7663 85.6456 100.554 87.7002 103.069C83.1579 101.835 79.2864 98.8578 76.9276 94.7846ZM96.9485 103.069C99.0027 100.554 100.697 97.766 101.984 94.7846H107.721C105.362 98.8578 101.491 101.835 96.9485 103.069ZM109.292 91.2275H103.188C104.117 87.7312 104.117 84.0527 103.188 80.5563H109.292C110.382 84.0298 110.382 87.7541 109.292 91.2275Z" fill="#F50B49"/>
</g>
<defs>
<clipPath id="clip0_1023_8018">
<rect width="42.6847" height="42.6847" fill="white" transform="translate(70.982 64.5496)"/>
</clipPath>
</defs>
</svg>
